# xmcd
#
# Track frame offsets:
#	150
#	19955
#	40737
#	62920
#	84302
#	106312
#	127612
#	148125
#	168655
#	190310
#
# Disc length: 2839 seconds
#
# Revision: 0
# Processed by: cddbd v1.5.2PL0 Copyright (c) Steve Scherf et al.
# Submitted via: EasyCDDAExtractor 15.3.0.1
#
DISCID=840b150a
DTITLE=Saned - Quiero Entregarme A Ti
DYEAR=1997
DGENRE=Latin
TTITLE0=Cuando Tu Te Fuiste
TTITLE1=Mas
TTITLE2=La Primera Vez
TTITLE3=Por Tu Amor
TTITLE4=Quiero Entregarme A Ti
TTITLE5=Rompamos El Hielo
TTITLE6=Primer Amor
TTITLE7=Ese Amor
TTITLE8=Me Niego A Estar Sola
TTITLE9=Gata Sin Luna
EXTD=
EXTT0=
EXTT1=
EXTT2=
EXTT3=
EXTT4=
EXTT5=
EXTT6=
EXTT7=
EXTT8=
EXTT9=
PLAYORDER=
